<svg width="16" height="16" viewBox="0 0 16 16" fill="none" xmlns="http://www.w3.org/2000/svg">
<path d="M12.9565 2.70999H3.04313C2.6011 2.70999 2.17718 2.88559 1.86462 3.19815C1.55206 3.51071 1.37646 3.93463 1.37646 4.37666V11.6233C1.37646 12.0654 1.55206 12.4893 1.86462 12.8018C2.17718 13.1144 2.6011 13.29 3.04313 13.29H12.9565C13.3985 13.29 13.8224 13.1144 14.135 12.8018C14.4475 12.4893 14.6231 12.0654 14.6231 11.6233V4.37666C14.6231 3.93463 14.4475 3.51071 14.135 3.19815C13.8224 2.88559 13.3985 2.70999 12.9565 2.70999ZM3.04313 3.37666H12.9565C13.2088 3.37593 13.452 3.47133 13.6365 3.64346C13.821 3.8156 13.933 4.05154 13.9498 4.30332C12.3031 5.18332 10.6498 6.05666 8.99647 6.93666C8.77279 7.07683 8.53614 7.19515 8.2898 7.28999C8.0964 7.32816 7.89709 7.32471 7.70513 7.27988C7.51317 7.23505 7.33295 7.14987 7.17647 7.02999C6.2298 6.52999 5.28313 6.02332 4.34313 5.52332C3.58313 5.12332 2.8098 4.71666 2.0498 4.30999C2.06526 4.05714 2.17668 3.81972 2.3613 3.64626C2.54592 3.47279 2.7898 3.37636 3.04313 3.37666ZM13.9565 11.6233C13.9565 11.8885 13.8511 12.1429 13.6636 12.3304C13.476 12.518 13.2217 12.6233 12.9565 12.6233H3.04313C2.77792 12.6233 2.52356 12.518 2.33602 12.3304C2.14849 12.1429 2.04313 11.8885 2.04313 11.6233V5.06666C3.61646 5.89332 5.18313 6.73333 6.75646 7.56666C7.03756 7.739 7.34018 7.87349 7.65647 7.96666C8.11939 8.04192 8.59383 7.94466 8.9898 7.69333C9.95646 7.18666 10.9165 6.67332 11.8831 6.16666C12.5765 5.79332 13.2631 5.43332 13.9565 5.06666V11.6233Z" fill="#333333"/>
</svg>
