<svg width="24" height="25" viewBox="0 0 24 25" fill="none" xmlns="http://www.w3.org/2000/svg">
<path d="M8.25 14L9.3075 15.0575L11.25 13.1225V22.25H12.75V13.1225L14.6925 15.0575L15.75 14L12 10.25L8.25 14Z" fill="black"/>
<path d="M17.6249 17H17.2499V15.5H17.6249C18.52 15.5358 19.3927 15.2146 20.0509 14.6069C20.7092 13.9993 21.0991 13.1551 21.1349 12.26C21.1707 11.3649 20.8495 10.4922 20.2418 9.83397C19.6342 9.17572 18.79 8.7858 17.8949 8.75H17.2499L17.1749 8.135C17.0085 6.87233 16.3888 5.71321 15.4312 4.87354C14.4736 4.03387 13.2435 3.57091 11.9699 3.57091C10.6963 3.57091 9.46616 4.03387 8.50857 4.87354C7.55099 5.71321 6.93129 6.87233 6.76489 8.135L6.74989 8.75H6.10489C5.20979 8.7858 4.36557 9.17572 3.75795 9.83397C3.15033 10.4922 2.82909 11.3649 2.86489 12.26C2.9007 13.1551 3.29062 13.9993 3.94887 14.6069C4.60712 15.2146 5.47979 15.5358 6.37489 15.5H6.74989V17H6.37489C5.1722 16.9924 4.01477 16.5404 3.12513 15.7311C2.2355 14.9217 1.67646 13.812 1.55549 12.6154C1.43453 11.4188 1.76018 10.2197 2.46983 9.24864C3.17949 8.2776 4.22305 7.60316 5.39989 7.355C5.72367 5.84489 6.55552 4.49148 7.75663 3.5206C8.95774 2.54972 10.4555 2.0201 11.9999 2.0201C13.5443 2.0201 15.042 2.54972 16.2432 3.5206C17.4443 4.49148 18.2761 5.84489 18.5999 7.355C19.7767 7.60316 20.8203 8.2776 21.53 9.24864C22.2396 10.2197 22.5653 11.4188 22.4443 12.6154C22.3233 13.812 21.7643 14.9217 20.8747 15.7311C19.985 16.5404 18.8276 16.9924 17.6249 17Z" fill="black"/>
</svg>
